<svg width="1280" height="720" xmlns="http://www.w3.org/2000/svg" xmlns:xlink="http://www.w3.org/1999/xlink" overflow="hidden"><g><rect x="0" y="0" width="1280" height="720" fill="#FFFFFF"/><rect x="146.5" y="185.5" width="141" height="41" stroke="#000000" stroke-width="2.66667" stroke-miterlimit="8" fill="none"/><text font-family="Calibri,Calibri_MSFontService,sans-serif" font-weight="400" font-size="24" transform="translate(167.21 213)">Message1</text><rect x="237.5" y="256.5" width="164" height="39" stroke="#000000" stroke-width="2.66667" stroke-miterlimit="8" fill="none"/><text font-family="Calibri,Calibri_MSFontService,sans-serif" font-weight="400" font-size="24" transform="translate(286.76 283)">Node1</text><rect x="342.5" y="403.5" width="164" height="39" stroke="#000000" stroke-width="2.66667" stroke-miterlimit="8" fill="none"/><text font-family="Calibri,Calibri_MSFontService,sans-serif" font-weight="400" font-size="24" transform="translate(391.008 430)">Value1</text><rect x="342.5" y="329.5" width="164" height="43" stroke="#000000" stroke-width="2.66667" stroke-miterlimit="8" fill="none"/><text font-family="Calibri,Calibri_MSFontService,sans-serif" font-weight="400" font-size="24" transform="translate(363.788 359)">Timestamp1</text><path d="M625.833 307.32 776.034 307.32 776.034 345.72 625.833 345.72Z" fill-rule="evenodd"/><path d="M776.034 307.32 926.234 307.32 926.234 345.72 776.034 345.72Z" fill-rule="evenodd"/><path d="M926.234 307.32 1076.43 307.32 1076.43 345.72 926.234 345.72Z" fill-rule="evenodd"/><path d="M1076.43 307.32 1226.63 307.32 1226.63 345.72 1076.43 345.72Z" fill-rule="evenodd"/><path d="M625.833 384.654 776.034 384.654 776.034 423.587 625.833 423.587Z" fill="#E7E6E6" fill-rule="evenodd"/><path d="M776.034 384.654 926.234 384.654 926.234 423.587 776.034 423.587Z" fill="#E7E6E6" fill-rule="evenodd"/><path d="M926.234 384.654 1076.43 384.654 1076.43 423.587 926.234 423.587Z" fill="#E7E6E6" fill-rule="evenodd"/><path d="M1076.43 384.654 1226.63 384.654 1226.63 423.587 1076.43 423.587Z" fill="#E7E6E6" fill-rule="evenodd"/><path d="M625.833 462.52 776.034 462.52 776.034 501.454 625.833 501.454Z" fill="#E7E6E6" fill-rule="evenodd"/><path d="M776.034 462.52 926.234 462.52 926.234 501.454 776.034 501.454Z" fill="#E7E6E6" fill-rule="evenodd"/><path d="M926.234 462.52 1076.43 462.52 1076.43 501.454 926.234 501.454Z" fill="#E7E6E6" fill-rule="evenodd"/><path d="M1076.43 462.52 1226.63 462.52 1226.63 501.454 1076.43 501.454Z" fill="#E7E6E6" fill-rule="evenodd"/><path d="M625.167 345.72 1227.3 345.72" stroke="#000000" stroke-width="0.666667" stroke-miterlimit="8" fill="none" fill-rule="evenodd"/><path d="M625.167 384.654 1227.3 384.654" stroke="#000000" stroke-width="0.666667" stroke-miterlimit="8" fill="none" fill-rule="evenodd"/><path d="M625.167 423.587 1227.3 423.587" stroke="#000000" stroke-width="0.666667" stroke-miterlimit="8" fill="none" fill-rule="evenodd"/><path d="M625.167 462.52 1227.3 462.52" stroke="#000000" stroke-width="0.666667" stroke-miterlimit="8" fill="none" fill-rule="evenodd"/><path d="M625.833 306.654 625.833 502.12" stroke="#000000" stroke-width="1.33333" stroke-linejoin="round" stroke-miterlimit="10" fill="none" fill-rule="evenodd"/><path d="M1226.63 306.654 1226.63 502.12" stroke="#000000" stroke-width="1.33333" stroke-linejoin="round" stroke-miterlimit="10" fill="none" fill-rule="evenodd"/><path d="M625.167 307.32 1227.3 307.32" stroke="#000000" stroke-width="1.33333" stroke-linejoin="round" stroke-miterlimit="10" fill="none" fill-rule="evenodd"/><path d="M625.167 501.454 1227.3 501.454" stroke="#000000" stroke-width="1.33333" stroke-linejoin="round" stroke-miterlimit="10" fill="none" fill-rule="evenodd"/><g><text fill="#FFFFFF" font-family="Calibri,Calibri_MSFontService,sans-serif" font-weight="700" font-size="24" transform="translate(1086.03 334)">V</text></g><text fill="#FFFFFF" font-family="Calibri,Calibri_MSFontService,sans-serif" font-weight="700" font-size="24" transform="translate(1098.87 334)">alue</text><g><text fill="#FFFFFF" font-family="Calibri,Calibri_MSFontService,sans-serif" font-weight="700" font-size="24" transform="translate(935.833 334)">N</text></g><text fill="#FFFFFF" font-family="Calibri,Calibri_MSFontService,sans-serif" font-weight="700" font-size="24" transform="translate(951.667 334)">odeID</text><g><text fill="#FFFFFF" font-family="Calibri,Calibri_MSFontService,sans-serif" font-weight="700" font-size="24" transform="translate(785.633 334)">D</text></g><text fill="#FFFFFF" font-family="Calibri,Calibri_MSFontService,sans-serif" font-weight="700" font-size="24" transform="translate(800.8 334)">eviceID</text><g><text fill="#FFFFFF" font-family="Calibri,Calibri_MSFontService,sans-serif" font-weight="700" font-size="24" transform="translate(635.433 334)">T</text></g><text fill="#FFFFFF" font-family="Calibri,Calibri_MSFontService,sans-serif" font-weight="700" font-size="24" transform="translate(647.267 334)">imestamp</text><g><text font-family="Calibri,Calibri_MSFontService,sans-serif" font-weight="400" font-size="24" transform="translate(1086.03 373)">Value1</text></g><g><text font-family="Calibri,Calibri_MSFontService,sans-serif" font-weight="400" font-size="24" transform="translate(935.833 373)">Node1</text></g><g><text font-family="Calibri,Calibri_MSFontService,sans-serif" font-weight="400" font-size="24" transform="translate(785.633 373)">Device1</text></g><g><text font-family="Calibri,Calibri_MSFontService,sans-serif" font-weight="400" font-size="24" transform="translate(635.433 373)">Timestamp1</text></g><g><text font-family="Calibri,Calibri_MSFontService,sans-serif" font-weight="400" font-size="24" transform="translate(1086.03 411)">Value2</text></g><g><text font-family="Calibri,Calibri_MSFontService,sans-serif" font-weight="400" font-size="24" transform="translate(935.833 411)">Node2</text></g><g><text font-family="Calibri,Calibri_MSFontService,sans-serif" font-weight="400" font-size="24" transform="translate(785.633 411)">Device1</text></g><g><text font-family="Calibri,Calibri_MSFontService,sans-serif" font-weight="400" font-size="24" transform="translate(635.433 411)">Timestamp2</text></g><g><text font-family="Calibri,Calibri_MSFontService,sans-serif" font-weight="400" font-size="24" transform="translate(1086.03 450)">…</text></g><g><text font-family="Calibri,Calibri_MSFontService,sans-serif" font-weight="400" font-size="24" transform="translate(935.833 450)">…</text></g><g><text font-family="Calibri,Calibri_MSFontService,sans-serif" font-weight="400" font-size="24" transform="translate(785.633 450)">…</text></g><g><text font-family="Calibri,Calibri_MSFontService,sans-serif" font-weight="400" font-size="24" transform="translate(635.433 450)">…</text></g><g><text font-family="Calibri,Calibri_MSFontService,sans-serif" font-weight="400" font-size="24" transform="translate(1086.03 489)">…</text></g><g><text font-family="Calibri,Calibri_MSFontService,sans-serif" font-weight="400" font-size="24" transform="translate(935.833 489)">…</text></g><g><text font-family="Calibri,Calibri_MSFontService,sans-serif" font-weight="400" font-size="24" transform="translate(785.633 489)">…</text></g><g><text font-family="Calibri,Calibri_MSFontService,sans-serif" font-weight="400" font-size="24" transform="translate(635.433 489)">…</text></g><rect x="42.5001" y="111.5" width="141" height="43" stroke="#000000" stroke-width="2.66667" stroke-miterlimit="8" fill="none"/><text font-family="Calibri,Calibri_MSFontService,sans-serif" font-weight="400" font-size="24" transform="translate(73.6714 140)">Device1</text><path d="M0 0 50.2712 0 50.2712 43.7324 51.2088 43.7324" stroke="#000000" stroke-width="0.666667" stroke-linecap="round" stroke-linejoin="round" stroke-miterlimit="10" fill="none" fill-rule="evenodd" transform="matrix(1.83697e-16 1 1 -1.83697e-16 193.5 226.5)"/><path d="M0 0 51.7414 0 51.7414 33.3366" stroke="#000000" stroke-width="0.666667" stroke-linecap="round" stroke-linejoin="round" stroke-miterlimit="10" fill="none" fill-rule="evenodd" transform="matrix(1.83697e-16 1 1 -1.83697e-16 112.5 154.5)"/><path d="M0 0 267.566 0 267.566 35.0421" stroke="#000000" stroke-width="0.666667" stroke-linecap="round" stroke-linejoin="round" stroke-miterlimit="10" fill="none" fill-rule="evenodd" transform="matrix(1.83697e-16 1 1 -1.83697e-16 193.5 226.5)"/><path d="M0 0 55.7195 0 55.7195 46.6722" stroke="#000000" stroke-width="0.666667" stroke-linecap="round" stroke-linejoin="round" stroke-miterlimit="10" fill="none" fill-rule="evenodd" transform="matrix(1.83697e-16 1 1 -1.83697e-16 295.5 295.5)"/><path d="M0 0 127.757 0 127.757 47.3698 127.515 47.3698" stroke="#000000" stroke-width="0.666667" stroke-linecap="round" stroke-linejoin="round" stroke-miterlimit="10" fill="none" fill-rule="evenodd" transform="matrix(1.83697e-16 1 1 -1.83697e-16 295.5 295.5)"/><rect x="228.5" y="475.5" width="165" height="38" stroke="#000000" stroke-width="2.66667" stroke-miterlimit="8" fill="none"/><text font-family="Calibri,Calibri_MSFontService,sans-serif" font-weight="400" font-size="24" transform="translate(278.069 502)">Node2</text><rect x="333.5" y="622.5" width="165" height="38" stroke="#000000" stroke-width="2.66667" stroke-miterlimit="8" fill="none"/><text font-family="Calibri,Calibri_MSFontService,sans-serif" font-weight="400" font-size="24" transform="translate(382.318 649)">Value2</text><rect x="333.5" y="548.5" width="165" height="43" stroke="#000000" stroke-width="2.66667" stroke-miterlimit="8" fill="none"/><text font-family="Calibri,Calibri_MSFontService,sans-serif" font-weight="400" font-size="24" transform="translate(355.098 577)">Timestamp2</text><path d="M0 0 55.7195 0 55.7195 46.6722" stroke="#000000" stroke-width="0.666667" stroke-linecap="round" stroke-linejoin="round" stroke-miterlimit="10" fill="none" fill-rule="evenodd" transform="matrix(1.83697e-16 1 1 -1.83697e-16 287.5 513.5)"/><path d="M0 0 127.757 0 127.757 47.3698 127.515 47.3698" stroke="#000000" stroke-width="0.666667" stroke-linecap="round" stroke-linejoin="round" stroke-miterlimit="10" fill="none" fill-rule="evenodd" transform="matrix(1.83697e-16 1 1 -1.83697e-16 287.5 513.5)"/><path d="M528.5 385.25 595 385.25 595 372.5 620.5 398 595 423.5 595 410.75 528.5 410.75Z" stroke="#000000" stroke-width="1.33333" stroke-miterlimit="8" fill="#A5A5A5" fill-rule="evenodd"/></g></svg>